<svg xmlns="http://www.w3.org/2000/svg" width="400" height="400" viewBox="0 0 400 400" version="1.1"><path d="M 80 41.906 C 80 42.405, 79.177 42.598, 78.172 42.335 C 76.022 41.772, 67.360 48.106, 67.775 49.937 C 67.926 50.603, 67.668 50.913, 67.202 50.625 C 65.988 49.875, 49.780 66.431, 50.719 67.463 C 51.148 67.934, 51.003 68.037, 50.395 67.691 C 48.041 66.349, 41.478 76.476, 42.677 79.601 C 43.128 80.775, 42.965 81.097, 42.170 80.605 C 41.350 80.098, 41 81.097, 41 83.941 C 41 86.173, 41.436 88, 41.969 88 C 42.501 88, 42.725 88.563, 42.467 89.250 C 41.772 91.096, 45.812 97.234, 47.170 96.395 C 47.846 95.977, 48.035 96.134, 47.636 96.780 C 46.397 98.785, 79.875 119.813, 82.109 118.433 C 82.843 117.979, 83.048 118.114, 82.636 118.780 C 81.842 120.065, 106.390 135.118, 109.654 135.348 C 110.839 135.432, 111.600 135.838, 111.345 136.250 C 111.090 136.662, 113.609 137, 116.941 137 C 120.273 137, 123 136.564, 123 136.031 C 123 135.499, 123.687 135.326, 124.526 135.648 C 126.612 136.449, 136.449 126.612, 135.648 124.526 C 135.326 123.687, 135.454 123, 135.931 123 C 137.126 123, 136.960 112.797, 135.740 111.250 C 135.198 110.563, 135.064 110, 135.442 110 C 135.819 110, 135.127 108.218, 133.903 106.041 C 132.679 103.863, 131.230 102.358, 130.684 102.695 C 130.138 103.033, 129.991 102.824, 130.358 102.231 C 131.224 100.828, 122.888 86.951, 121.641 87.722 C 121.119 88.045, 121.012 87.790, 121.403 87.156 C 122.282 85.735, 119.637 81.726, 118.500 82.756 C 118.049 83.165, 117.986 82.965, 118.362 82.310 C 119.066 81.081, 115.713 74.620, 114.830 75.504 C 114.557 75.777, 114.323 75.438, 114.311 74.750 C 114.270 72.464, 109.821 65.992, 108.748 66.656 C 108.112 67.049, 107.988 66.829, 108.436 66.103 C 109.254 64.779, 103.093 53.825, 101.933 54.541 C 101.544 54.782, 101.288 54.196, 101.363 53.239 C 101.439 52.277, 100.908 51.623, 100.176 51.775 C 99.447 51.926, 99.149 51.569, 99.512 50.981 C 100.330 49.657, 98.111 46.813, 96.862 47.585 C 96.361 47.895, 96.074 47.610, 96.225 46.953 C 96.653 45.092, 88.140 41, 83.843 41 C 81.729 41, 80 41.408, 80 41.906" stroke="none" fill="#7e4ede" fill-rule="evenodd"/><path d="M 343.382 172.504 C 300.634 183.579, 297 185.745, 297 200.152 C 297 212.737, 303.094 217.074, 329.689 223.418 C 340.585 226.017, 352.425 228.970, 356 229.980 C 394.411 240.835, 400.388 236.442, 399.809 197.784 C 399.252 160.595, 395.623 158.969, 343.382 172.504" stroke="none" fill="#89c168" fill-rule="evenodd"/><path d="M 310.667 42.225 C 304.702 43.801, 300.066 49.198, 289.815 66.500 C 284.601 75.300, 278.298 85.668, 275.808 89.541 C 258.849 115.919, 258.703 129.688, 275.315 135.940 C 284.096 139.245, 284.548 139.060, 321 117.211 C 366.970 89.658, 368.438 85.162, 340.328 58.016 C 323.469 41.735, 319.837 39.801, 310.667 42.225" stroke="none" fill="#fec749" fill-rule="evenodd"/><path d="M 173.441 3.198 C 163.601 9.774, 162.321 16.064, 167.058 34.561 C 168.739 41.127, 172.585 56.175, 175.604 68 C 184.332 102.187, 194.912 111.380, 211.281 99 C 217.491 94.303, 236.106 33.732, 235.972 18.659 C 235.824 2.124, 191.461 -8.845, 173.441 3.198" stroke="none" fill="#f62080" fill-rule="evenodd"/><path d="M 9.849 166.881 C 0.948 172.526, 0.545 173.739, 0.181 196 C -0.326 227.028, 3.511 235, 18.954 235 C 24.186 235, 87.108 219.496, 91.996 217.002 C 102.090 211.853, 105.429 200.639, 100.023 190.047 C 96.058 182.277, 96.128 182.305, 54.500 172.120 C 47.900 170.505, 38.157 168.018, 32.850 166.592 C 20.087 163.164, 15.621 163.220, 9.849 166.881" stroke="none" fill="#4dcef6" fill-rule="evenodd"/><path d="M 194.917 146.415 C 194.688 146.644, 192.475 147.109, 190 147.449 C 182.301 148.508, 171.374 154.562, 164.419 161.620 C 158.893 167.228, 156.525 170.991, 151.912 181.500 C 141.137 206.048, 158.314 241.777, 184.855 250.025 C 236.867 266.188, 274.279 197.998, 233.907 160.620 C 223.188 150.696, 199.340 142.008, 194.917 146.415 M 185.500 273.128 C 141.695 277.301, 103.604 303.517, 86.007 341.606 C 77.857 359.247, 77.917 359.547, 91.360 368.170 C 156.737 410.108, 242.952 409.981, 309.088 367.849 C 320.836 360.365, 320.919 360.221, 318.134 352.241 C 311.969 334.576, 303.205 321.267, 288.234 306.834 C 260.765 280.354, 226.759 269.197, 185.500 273.128" stroke="none" fill="#3a475d" fill-rule="evenodd"/></svg>